{
  "accessors": [
    {
      "bufferView": 2,
      "componentType": 5126,
      "count": 5137,
      "max": [
        658242.5625,
        17793,
        667360.3125
      ],
      "min": [
        -658242.5625,
        -4115.24462890625,
        -667360.375
      ],
      "type": "VEC3"
    },
    {
      "bufferView": 2,
      "byteOffset": 61644,
      "componentType": 5126,
      "count": 5137,
      "max": [
        0.40561458468437195,
        -0.8152233362197876,
        0.57421523332595825
      ],
      "min": [
        -0.46221503615379333,
        -1,
        -0.44979375600814819
      ],
      "type": "VEC3"
    },
    {
      "bufferView": 3,
      "componentType": 5126,
      "count": 5137,
      "max": [
        1,
        0.41118144989013672,
        0.016760025173425674,
        1
      ],
      "min": [
        0.87912797927856445,
        -0.47650948166847229,
        -0.014043494127690792,
        1
      ],
      "type": "VEC4"
    },
    {
      "bufferView": 1,
      "componentType": 5126,
      "count": 5137,
      "max": [
        1,
        1
      ],
      "min": [
        2.9802322387695312e-08,
        5.9604644775390625e-08
      ],
      "type": "VEC2"
    },
    {
      "bufferView": 0,
      "componentType": 5125,
      "count": 30000,
      "max": [
        5136
      ],
      "min": [
        0
      ],
      "type": "SCALAR"
    },
    {
      "bufferView": 2,
      "byteOffset": 123288,
      "componentType": 5126,
      "count": 833,
      "max": [
        658242.5625,
        100000.0234375,
        667360.3125
      ],
      "min": [
        -658242.5625,
        -1726.19091796875,
        -667360.375
      ],
      "type": "VEC3"
    },
    {
      "bufferView": 2,
      "byteOffset": 133284,
      "componentType": 5126,
      "count": 833,
      "max": [
        1,
        1,
        1
      ],
      "min": [
        -1,
        0,
        -1
      ],
      "type": "VEC3"
    },
    {
      "bufferView": 3,
      "byteOffset": 82192,
      "componentType": 5126,
      "count": 833,
      "max": [
        1,
        1,
        0.00018051745428238064,
        1
      ],
      "min": [
        -1,
        -1,
        -0.00016833083645906299,
        1
      ],
      "type": "VEC4"
    },
    {
      "bufferView": 0,
      "byteOffset": 120000,
      "componentType": 5125,
      "count": 2442,
      "max": [
        832
      ],
      "min": [
        0
      ],
      "type": "SCALAR"
    }
  ],
  "asset": {
    "extras": {
      "author": "SebastianSosnowski (https://sketchfab.com/SebastianSosnowski)",
      "license": "CC-BY-4.0 (http://creativecommons.org/licenses/by/4.0/)",
      "source": "https://sketchfab.com/models/0bc502fced134c39b1b50075bb05e654",
      "title": "Copernicus crater on the Moon (ca 100 km diam.)"
    },
    "generator": "Sketchfab-3.21.5",
    "version": "2.0"
  },
  "bufferViews": [
    {
      "buffer": 0,
      "byteLength": 129768,
      "byteOffset": 0,
      "name": "floatBufferViews",
      "target": 34963
    },
    {
      "buffer": 0,
      "byteLength": 41096,
      "byteOffset": 129768,
      "byteStride": 8,
      "name": "floatBufferViews",
      "target": 34962
    },
    {
      "buffer": 0,
      "byteLength": 143280,
      "byteOffset": 170864,
      "byteStride": 12,
      "name": "floatBufferViews",
      "target": 34962
    },
    {
      "buffer": 0,
      "byteLength": 95520,
      "byteOffset": 314144,
      "byteStride": 16,
      "name": "floatBufferViews",
      "target": 34962
    }
  ],
  "buffers": [
    {
      "byteLength": 409664,
      "uri": "scene.bin"
    }
  ],
  "images": [
    {
      "uri": "textures/material_baseColor.jpg"
    },
    {
      "uri": "textures/material_normal.png"
    },
    {
      "uri": "textures/material_metallicRoughness.png"
    }
  ],
  "materials": [
    {
      "doubleSided": false,
      "name": "material",
      "normalTexture": {
        "index": 1,
        "scale": 1,
        "texCoord": 0
      },
      "occlusionTexture": {
        "index": 2,
        "strength": 1,
        "texCoord": 0
      },
      "pbrMetallicRoughness": {
        "baseColorFactor": [
          1,
          1,
          1,
          1
        ],
        "baseColorTexture": {
          "index": 0,
          "texCoord": 0
        },
        "metallicFactor": 0,
        "metallicRoughnessTexture": {
          "index": 2,
          "texCoord": 0
        },
        "roughnessFactor": 1
      }
    },
    {
      "doubleSided": false,
      "name": "Material_64",
      "pbrMetallicRoughness": {
        "baseColorFactor": [
          0,
          0,
          0,
          1
        ],
        "metallicFactor": 0,
        "roughnessFactor": 0.30136362709999998
      }
    }
  ],
  "meshes": [
    {
      "name": "Copernicus_LP_2_0",
      "primitives": [
        {
          "attributes": {
            "NORMAL": 1,
            "POSITION": 0,
            "TANGENT": 2,
            "TEXCOORD_0": 3
          },
          "indices": 4,
          "material": 0,
          "mode": 4
        }
      ]
    },
    {
      "name": "Copernicus_LP_Material #64_0",
      "primitives": [
        {
          "attributes": {
            "NORMAL": 6,
            "POSITION": 5,
            "TANGENT": 7
          },
          "indices": 8,
          "material": 1,
          "mode": 4
        }
      ]
    }
  ],
  "nodes": [
    {
      "children": [
        1
      ],
      "name": "RootNode (gltf orientation matrix)",
      "rotation": [
        -0.70710678118654746,
        -0,
        -0,
        0.70710678118654757
      ]
    },
    {
      "children": [
        2
      ],
      "name": "RootNode (model correction matrix)"
    },
    {
      "children": [
        3
      ],
      "matrix": [
        1,
        0,
        0,
        0,
        0,
        0,
        1,
        0,
        0,
        -1,
        0,
        0,
        0,
        0,
        0,
        1
      ],
      "name": "8f3a087292024082bf4075674483630a.fbx"
    },
    {
      "children": [
        4
      ],
      "name": "RootNode"
    },
    {
      "children": [
        5
      ],
      "matrix": [
        1,
        0,
        0,
        0,
        0,
        2.2204460492503131e-16,
        -1,
        0,
        0,
        1,
        2.2204460492503131e-16,
        0,
        0,
        -47942.390625,
        0.033345628529787064,
        1
      ],
      "name": "Copernicus_LP"
    },
    {
      "children": [
        6,
        7
      ],
      "matrix": [
        1,
        0,
        -0,
        0,
        -0,
        6.123233995736766e-17,
        -1,
        0,
        0,
        1,
        6.123233995736766e-17,
        0,
        0,
        0.03125,
        47942.390625,
        1
      ],
      "name": ""
    },
    {
      "mesh": 0,
      "name": "Copernicus_LP_2_0"
    },
    {
      "mesh": 1,
      "name": "Copernicus_LP_Material #64_0"
    }
  ],
  "samplers": [
    {
      "magFilter": 9729,
      "minFilter": 9987,
      "wrapS": 10497,
      "wrapT": 10497
    }
  ],
  "scene": 0,
  "scenes": [
    {
      "name": "OSG_Scene",
      "nodes": [
        0
      ]
    }
  ],
  "textures": [
    {
      "sampler": 0,
      "source": 0
    },
    {
      "sampler": 0,
      "source": 1
    },
    {
      "sampler": 0,
      "source": 2
    }
  ]
}

