{
  "accessors": [
    {
      "bufferView": 2,
      "componentType": 5126,
      "count": 11244,
      "max": [
        2.1152606010437012,
        3.8309495449066162,
        2.4633269309997559
      ],
      "min": [
        -2.0463495254516602,
        -0.63021475076675415,
        -2.4571049213409424
      ],
      "type": "VEC3"
    },
    {
      "bufferView": 2,
      "byteOffset": 134928,
      "componentType": 5126,
      "count": 11244,
      "max": [
        0.9987105131149292,
        0.99896705150604248,
        0.99976867437362671
      ],
      "min": [
        -0.99974626302719116,
        -0.999977707862854,
        -0.99951434135437012
      ],
      "type": "VEC3"
    },
    {
      "bufferView": 3,
      "componentType": 5126,
      "count": 11244,
      "max": [
        0.99999439716339111,
        1,
        1,
        1
      ],
      "min": [
        -0.99998962879180908,
        -0.99996817111968994,
        -0.99997806549072266,
        -1
      ],
      "type": "VEC4"
    },
    {
      "bufferView": 1,
      "componentType": 5126,
      "count": 11244,
      "max": [
        0.99500000476837158,
        0.99500000476837158
      ],
      "min": [
        0.004999999888241291,
        0.050429224967956543
      ],
      "type": "VEC2"
    },
    {
      "bufferView": 0,
      "componentType": 5125,
      "count": 30210,
      "max": [
        11243
      ],
      "min": [
        0
      ],
      "type": "SCALAR"
    }
  ],
  "asset": {
    "extras": {
      "author": "Glen Johnson (https://sketchfab.com/plasticarm)",
      "license": "CC-BY-4.0 (http://creativecommons.org/licenses/by/4.0/)",
      "source": "https://sketchfab.com/models/d8b3a5b9146844d28d09af276449613c",
      "title": "Moon Rock 2"
    },
    "generator": "Sketchfab-3.19.2",
    "version": "2.0"
  },
  "bufferViews": [
    {
      "buffer": 0,
      "byteLength": 120840,
      "byteOffset": 0,
      "name": "floatBufferViews",
      "target": 34963
    },
    {
      "buffer": 0,
      "byteLength": 89952,
      "byteOffset": 120840,
      "byteStride": 8,
      "name": "floatBufferViews",
      "target": 34962
    },
    {
      "buffer": 0,
      "byteLength": 269856,
      "byteOffset": 210792,
      "byteStride": 12,
      "name": "floatBufferViews",
      "target": 34962
    },
    {
      "buffer": 0,
      "byteLength": 179904,
      "byteOffset": 480648,
      "byteStride": 16,
      "name": "floatBufferViews",
      "target": 34962
    }
  ],
  "buffers": [
    {
      "byteLength": 660552,
      "uri": "scene.bin"
    }
  ],
  "extensionsRequired": [
    "KHR_materials_pbrSpecularGlossiness"
  ],
  "extensionsUsed": [
    "KHR_materials_pbrSpecularGlossiness"
  ],
  "images": [
    {
      "uri": "textures/MoonRock2_diffuse.jpeg"
    },
    {
      "uri": "textures/MoonRock2_normal.jpeg"
    },
    {
      "uri": "textures/MoonRock2_specularGlossiness.png"
    }
  ],
  "materials": [
    {
      "doubleSided": false,
      "extensions": {
        "KHR_materials_pbrSpecularGlossiness": {
          "diffuseFactor": [
            1,
            1,
            1,
            1
          ],
          "diffuseTexture": {
            "index": 0,
            "texCoord": 0
          },
          "glossinessFactor": 1,
          "specularFactor": [
            1,
            1,
            1
          ],
          "specularGlossinessTexture": {
            "index": 2,
            "texCoord": 0
          }
        }
      },
      "name": "MoonRock2",
      "normalTexture": {
        "index": 1,
        "scale": 1,
        "texCoord": 0
      }
    }
  ],
  "meshes": [
    {
      "primitives": [
        {
          "attributes": {
            "NORMAL": 1,
            "POSITION": 0,
            "TANGENT": 2,
            "TEXCOORD_0": 3
          },
          "indices": 4,
          "material": 0,
          "mode": 4
        }
      ]
    }
  ],
  "nodes": [
    {
      "children": [
        1
      ],
      "name": "RootNode (gltf orientation matrix)",
      "rotation": [
        -0.70710678118654746,
        -0,
        -0,
        0.70710678118654757
      ]
    },
    {
      "children": [
        2
      ],
      "name": "RootNode (model correction matrix)"
    },
    {
      "children": [
        3
      ],
      "name": "root"
    },
    {
      "children": [
        4
      ],
      "matrix": [
        1,
        0,
        0,
        0,
        0,
        2.2204460492503131e-16,
        1,
        0,
        0,
        -1,
        2.2204460492503131e-16,
        0,
        0,
        0,
        0,
        1
      ],
      "name": "GLTF_SceneRootNode"
    },
    {
      "children": [
        5
      ],
      "name": "UnityGlTF_root_0"
    },
    {
      "children": [
        6
      ],
      "matrix": [
        0.10000000149011612,
        0,
        0,
        0,
        0,
        0.10000000149011612,
        0,
        0,
        0,
        0,
        0.10000000149011612,
        0,
        -2.2999999523162842,
        -15.270000457763672,
        -38.200000762939453,
        1
      ],
      "name": "node_MoonRock2_-3626_1"
    },
    {
      "mesh": 0,
      "name": ""
    }
  ],
  "samplers": [
    {
      "magFilter": 9729,
      "minFilter": 9729,
      "wrapS": 10497,
      "wrapT": 10497
    }
  ],
  "scene": 0,
  "scenes": [
    {
      "name": "OSG_Scene",
      "nodes": [
        0
      ]
    }
  ],
  "textures": [
    {
      "sampler": 0,
      "source": 0
    },
    {
      "sampler": 0,
      "source": 1
    },
    {
      "sampler": 0,
      "source": 2
    }
  ]
}

